<?xml version="1.0" encoding="iso-8859-1"?>
<!-- Generator: Adobe Illustrator 19.0.0, SVG Export Plug-In . SVG Version: 6.00 Build 0)  -->
<svg version="1.1" id="Layer_1" xmlns="http://www.w3.org/2000/svg" xmlns:xlink="http://www.w3.org/1999/xlink" x="0px" y="0px"
	 viewBox="0 0 512 512" style="enable-background:new 0 0 512 512;" xml:space="preserve">
<path style="fill:#E6AF78;" d="M238.345,384.202v-39.926H114.759v39.926c0,7.751-5.055,14.595-12.463,16.874l-77.369,23.806
	C10.11,429.441,0,443.129,0,458.631v35.714C0,504.096,7.904,512,17.655,512h317.793c9.751,0,17.655-7.904,17.655-17.655v-35.714
	c0-15.501-10.11-29.191-24.926-33.749l-77.369-23.806C243.4,398.797,238.345,391.953,238.345,384.202z"/>
<path style="fill:#C7CFE2;" d="M328.178,424.882l-55.99-17.227c-20.555,30.953-55.695,51.38-95.636,51.38
	s-75.081-20.427-95.636-51.38l-55.99,17.227C10.11,429.441,0,443.129,0,458.631v35.714C0,504.095,7.905,512,17.655,512h317.793
	c9.75,0,17.655-7.905,17.655-17.655v-35.714C353.103,443.129,342.994,429.441,328.178,424.882z"/>
<path style="fill:#D29B6E;" d="M104.865,399.954c83.766,27.936,133.412-49.794,133.412-49.794l0.012-5.884H114.759v39.926
	c0,6.785-4,12.685-9.937,15.626C104.814,399.864,104.879,399.917,104.865,399.954z"/>
<path style="fill:#C7CFE2;" d="M399.031,1.258c-41.281,6.532-74.223,40.256-80.207,81.62c-3.399,23.496,1.803,45.535,12.685,63.797
	l-17.284,43.212c-1.982,4.953,2.934,9.87,7.889,7.889l43.212-17.284c18.262,10.881,40.301,16.084,63.797,12.685
	c41.364-5.984,75.086-38.926,81.62-80.207C521.188,46.956,465.044-9.188,399.031,1.258z"/>
<path style="fill:#AFB9D2;" d="M353.103,97.103c0-47.555,34.209-87.054,79.346-95.406c-10.646-1.948-21.863-2.268-33.418-0.438
	c-41.281,6.532-74.223,40.255-80.207,81.62c-3.4,23.496,1.803,45.535,12.685,63.797l-17.286,43.212
	c-1.981,4.953,2.935,9.869,7.889,7.887l43.212-17.284c18.262,10.881,40.301,16.084,63.797,12.685
	c1.165-0.169,2.301-0.436,3.453-0.646C387.378,184.226,353.103,144.703,353.103,97.103z"/>
<path style="fill:#F0C087;" d="M210.4,373.448l35.43-29.525c6.558-5.464,10.913-13.119,12.262-21.547l20.135-125.839
	c6.866-42.908-26.28-81.778-69.734-81.778h-63.881c-43.454,0-76.599,38.87-69.734,81.778l20.135,125.839
	c1.348,8.428,5.705,16.083,12.262,21.547l35.43,29.525c4.759,3.966,10.759,6.138,16.953,6.138h33.79
	C199.641,379.586,205.641,377.415,210.4,373.448z"/>
<path style="fill:#E6AF78;" d="M264.009,256c-4.316,0-7.999-3.119-8.707-7.377l-6.161-36.96c-0.662,0.05-1.294,0.199-1.969,0.199
	c-9.223,0-17.326-4.726-22.069-11.876c-4.743,7.15-12.846,11.876-22.069,11.876s-17.326-4.726-22.069-11.876
	c-4.743,7.15-12.846,11.876-22.069,11.876c-9.223,0-17.326-4.726-22.069-11.876c-4.743,7.15-12.846,11.876-22.069,11.876
	c-0.674,0-1.306-0.149-1.969-0.199l-6.161,36.96c-0.71,4.256-4.392,7.377-8.707,7.377h-13.53l10.621,66.376
	c1.348,8.428,5.705,16.083,12.262,21.547l35.431,29.525c4.759,3.966,10.758,6.137,16.952,6.137h8.067l-13.126-39.375
	c-3-9.001-4.53-18.428-4.53-27.915v-74.461c0-4.558,3.45-8.326,7.987-8.778c8.122-0.811,18.108-2.675,22.91-5.453
	c6.605,3.821,14.186,5.913,22.069,5.913c7.883,0,15.464-2.092,22.069-5.913c2.77,1.602,5.71,2.901,8.774,3.868l4.009,24.054
	c2.129,12.771,13.176,22.131,26.122,22.131h1.879L268.712,256H264.009z"/>
<path style="fill:#464655;" d="M265.913,298.724c-0.44,1.5-11.5,36.724-78.793,36.724v17.655c81.655,0,95.285-47.707,95.828-49.741
	L265.913,298.724z"/>
<circle style="fill:#5B5D6E;" cx="187.123" cy="344.276" r="8.828"/>
<g>
	<path style="fill:#707487;" d="M282.483,256h-13.771l-8.474,52.966h22.246c4.875,0,8.828-3.953,8.828-8.828v-35.31
		C291.31,259.953,287.358,256,282.483,256z"/>
	<path style="fill:#707487;" d="M70.621,256h13.771l8.474,52.966H70.621c-4.875,0-8.828-3.953-8.828-8.828v-35.31
		C61.793,259.953,65.746,256,70.621,256z"/>
</g>
<path style="fill:#FFFFFF;" d="M478.518,59.965c-3.447-3.448-9.036-3.448-12.483,0l-9.901,9.9l-11.666-2.333l-2.334-11.666
	l9.901-9.901c3.448-3.447,3.448-9.036,0-12.483c-3.447-3.448-9.036-3.448-12.483,0l-13.241,13.241
	c-2.088,2.087-2.993,5.079-2.414,7.974l3.487,17.437l-33.043,33.042l-17.437-3.487c-2.893-0.577-5.886,0.327-7.974,2.414
	l-13.241,13.241c-3.448,3.447-3.448,9.036,0,12.483c3.447,3.448,9.036,3.448,12.483,0l9.901-9.9l11.666,2.333l2.334,11.666
	l-9.901,9.901c-3.448,3.447-3.448,9.036,0,12.483c1.724,1.724,3.982,2.585,6.242,2.585c2.26,0,4.519-0.862,6.242-2.585
	l13.241-13.241c2.088-2.087,2.993-5.079,2.414-7.974l-3.487-17.437l33.043-33.042l17.437,3.487c0.575,0.116,1.154,0.172,1.73,0.172
	c2.318,0,4.57-0.914,6.242-2.585l13.241-13.241C481.965,69.002,481.965,63.412,478.518,59.965z"/>
<path style="fill:#5A4146;" d="M308.966,176.552c0-12.227-8.331-22.415-19.594-25.463c1.225-3.049,1.939-6.36,1.939-9.847
	c0-14.626-11.857-26.483-26.483-26.483c-0.538,0-1.042,0.127-1.572,0.159c-3.604-10.344-13.338-17.814-24.91-17.814
	c-2.844,0-5.538,0.53-8.087,1.389c-5.652-6.232-13.732-10.217-22.809-10.217c-2.34,0-4.599,0.31-6.791,0.803
	c-6.317-5.931-14.758-9.631-24.106-9.631c-9.348,0-17.789,3.7-24.106,9.631c-2.191-0.493-4.45-0.803-6.791-0.803
	c-8.424,0-16.043,3.392-21.617,8.86c-0.153-0.003-0.298-0.032-0.452-0.032c-11.572,0-21.306,7.47-24.91,17.814
	c-0.531-0.032-1.034-0.159-1.572-0.159c-14.626,0-26.483,11.857-26.483,26.483c0,3.487,0.714,6.798,1.939,9.847
	c-11.263,3.048-19.594,13.236-19.594,25.463c0,6.814,2.645,12.962,6.873,17.655c-4.228,4.693-6.873,10.841-6.873,17.655
	c0,11.572,7.47,21.306,17.814,24.91c-0.047,0.526-0.159,1.034-0.159,1.572c0,8.179,5.589,14.991,13.135,16.998L83.861,256h14.061
	c4.316,0,7.998-3.121,8.707-7.377l6.161-36.96c0.662,0.05,1.294,0.199,1.969,0.199c9.223,0,17.326-4.726,22.069-11.876
	c4.743,7.15,12.846,11.876,22.069,11.876c9.223,0,17.326-4.726,22.069-11.876c4.743,7.15,12.846,11.876,22.069,11.876
	s17.326-4.726,22.069-11.876c4.743,7.15,12.846,11.876,22.069,11.876c0.674,0,1.306-0.149,1.969-0.199l6.161,36.96
	c0.71,4.256,4.392,7.377,8.707,7.377h14.06l0.105-0.658c7.548-2.006,13.137-8.819,13.137-16.998c0-0.538-0.111-1.046-0.159-1.572
	c10.344-3.604,17.814-13.338,17.814-24.91c0-6.814-2.645-12.962-6.873-17.655C306.319,189.514,308.966,183.366,308.966,176.552z"/>
<g>
	<path style="fill:#AFB9D2;" d="M10.959,433.113C4.138,439.627,0,448.746,0,458.631v35.714C0,504.096,7.904,512,17.655,512h44.138
		v-23.154c0-7.733-3.38-15.081-9.254-20.111L10.959,433.113z"/>
	<path style="fill:#AFB9D2;" d="M342.144,433.113c6.822,6.513,10.959,15.633,10.959,25.517v35.714
		c0,9.751-7.904,17.655-17.655,17.655H291.31v-23.154c0-7.733,3.38-15.081,9.254-20.111L342.144,433.113z"/>
	<path style="fill:#AFB9D2;" d="M63.529,413.004c23.243,38.136,65.095,63.685,113.023,63.685s89.78-25.549,113.023-63.685
		l-17.387-5.35c-20.555,30.953-55.695,51.38-95.636,51.38s-75.081-20.427-95.636-51.38L63.529,413.004z"/>
</g>
<g>
</g>
<g>
</g>
<g>
</g>
<g>
</g>
<g>
</g>
<g>
</g>
<g>
</g>
<g>
</g>
<g>
</g>
<g>
</g>
<g>
</g>
<g>
</g>
<g>
</g>
<g>
</g>
<g>
</g>
</svg>
