<?xml version="1.0" encoding="iso-8859-1"?>
<!-- Generator: Adobe Illustrator 19.0.0, SVG Export Plug-In . SVG Version: 6.00 Build 0)  -->
<svg version="1.1" id="Layer_1" xmlns="http://www.w3.org/2000/svg" xmlns:xlink="http://www.w3.org/1999/xlink" x="0px" y="0px"
	 viewBox="0 0 512 512" style="enable-background:new 0 0 512 512;" xml:space="preserve">
<path style="fill:#C3E678;" d="M476.69,105.176H35.31c-19.501,0-35.31,15.809-35.31,35.31v176.552
	c0,19.501,15.809,35.31,35.31,35.31h158.912l-0.003,0.003l49.301,49.301c6.894,6.895,18.073,6.895,24.968,0l49.301-49.301
	l-0.003-0.003H476.69c19.501,0,35.31-15.809,35.31-35.31V140.486C512,120.985,496.191,105.176,476.69,105.176z"/>
<g>
	<path style="fill:#FFFFFF;" d="M150.069,166.97c-4.875,0-8.828,3.953-8.828,8.828v44.138H88.276v-44.138
		c0-4.875-3.953-8.828-8.828-8.828c-4.875,0-8.828,3.953-8.828,8.828v105.931c0,4.875,3.953,8.828,8.828,8.828
		c4.875,0,8.828-3.953,8.828-8.828v-44.138h52.966v44.138c0,4.875,3.953,8.828,8.828,8.828c4.875,0,8.828-3.953,8.828-8.828V175.798
		C158.897,170.922,154.944,166.97,150.069,166.97z"/>
	<path style="fill:#FFFFFF;" d="M344.276,272.9H291.31v-97.103c0-4.875-3.953-8.828-8.828-8.828s-8.828,3.953-8.828,8.828V272.9
		c0,9.735,7.921,17.655,17.655,17.655h52.966c4.875,0,8.828-3.953,8.828-8.828C353.103,276.853,349.151,272.9,344.276,272.9z"/>
	<path style="fill:#FFFFFF;" d="M247.172,184.624c4.875,0,8.828-3.953,8.828-8.828s-3.953-8.828-8.828-8.828h-52.966
		c-9.735,0-17.655,7.921-17.655,17.655V272.9c0,9.735,7.921,17.655,17.655,17.655h52.966c4.875,0,8.828-3.953,8.828-8.828
		c0-4.875-3.953-8.828-8.828-8.828h-52.966v-35.31h35.31c4.875,0,8.828-3.953,8.828-8.828s-3.953-8.828-8.828-8.828h-35.31v-35.31
		H247.172z"/>
	<path style="fill:#FFFFFF;" d="M406.069,166.969h-26.483c-9.735,0-17.655,7.921-17.655,17.655v97.103
		c0,4.875,3.953,8.828,8.828,8.828c4.875,0,8.828-3.953,8.828-8.828v-26.483h26.483c24.338,0,44.138-19.8,44.138-44.138
		S430.407,166.969,406.069,166.969z M406.069,237.59h-26.483v-52.966h26.483c14.603,0,26.483,11.88,26.483,26.483
		S420.672,237.59,406.069,237.59z"/>
</g>
<g>
</g>
<g>
</g>
<g>
</g>
<g>
</g>
<g>
</g>
<g>
</g>
<g>
</g>
<g>
</g>
<g>
</g>
<g>
</g>
<g>
</g>
<g>
</g>
<g>
</g>
<g>
</g>
<g>
</g>
</svg>
