<?xml version="1.0" encoding="utf-8"?>
<!-- Generator: Adobe Illustrator 22.1.0, SVG Export Plug-In . SVG Version: 6.00 Build 0)  -->
<svg version="1.1" id="Layer_1" xmlns="http://www.w3.org/2000/svg" xmlns:xlink="http://www.w3.org/1999/xlink" x="0px" y="0px"
	 viewBox="0 0 792 612" style="enable-background:new 0 0 792 612;" xml:space="preserve">
<style type="text/css">
	.st0{fill:#FBB040;}
	.st1{fill:#006838;}
</style>
<g>
	<g>
		<g>
			<path class="st0" d="M90.6,311.6c-1.7-0.2-3.1-1-4.1-2.3l-31.3-54.6c-0.1-2.8,0.8-5,2.9-6.6c1.8-0.9,3.4-1.2,4.7-1.1
				c1.3,0.1,2.5,1,3.5,2.6l26.2,44.9l35.3-46.6c2.9-1,5.3-1,7.1,0c1.8,1,2.5,3.2,2.1,6.7l-41.5,55.3C94,311,92.3,311.6,90.6,311.6z"
				/>
		</g>
		<g>
			<path class="st0" d="M147.7,311.6c-1.4-0.2-2.7-0.4-3.9-0.7c-1.2-0.3-2.4-0.8-3.5-1.4c-1.1-0.6-2.2-1.5-3.2-2.5
				c-0.7-1.1-1.4-2.1-2-3.2c-0.6-1.1-1.1-2.2-1.4-3.4c-0.3-1.2-0.4-2.5-0.4-3.8l2.1-23.9c0.5-1.3,0.9-2.7,1.4-4
				c0.5-1.3,1.2-2.6,2.1-3.9c1-1.3,2.1-2.5,3.5-3.5c0.9-0.5,1.7-1,2.6-1.5c0.8-0.5,1.8-0.9,2.7-1.2c1-0.3,2-0.6,3.1-0.8h38.7
				c1.4,0.4,2.7,0.8,4,1.2c1.3,0.4,2.4,1,3.5,1.8c1.1,0.8,2.1,1.9,3,3.1c0.6,0.8,1.2,1.7,1.6,2.6c0.4,0.9,0.7,1.9,0.9,3
				c0.1,1.1,0.4,2.1,0.7,3l-2.1,23.9c-0.5,1.5-1,2.9-1.5,4.3c-0.6,1.4-1.3,2.7-2.3,4c-1,1.3-2.1,2.4-3.5,3.4
				c-0.9,0.8-1.9,1.4-2.9,1.8c-1.1,0.4-2.2,0.8-3.3,1.1c-1.1,0.3-2.2,0.5-3.4,0.7H147.7z M187.1,298.9c0.4-0.3,0.8-0.6,1.1-1.1
				c0.3-0.4,0.6-0.9,0.7-1.6c0.2-0.6,0.4-1.2,0.5-1.7l1.8-19.6c-0.1-0.5-0.2-1.1-0.2-1.6c0-0.6-0.1-1-0.4-1.4
				c-0.3-0.4-0.6-0.8-0.9-1.1c-0.3-0.2-0.6-0.5-0.9-0.7c-0.3-0.2-0.7-0.3-1.1-0.4c-0.4-0.1-0.8-0.1-1.2-0.3H152
				c-0.4,0.1-0.8,0.2-1.2,0.3c-0.4,0.1-0.8,0.2-1.1,0.3c-0.3,0.1-0.5,0.3-0.7,0.6c-0.4,0.5-0.7,1-1,1.3c-0.3,0.4-0.5,0.8-0.6,1.2
				c-0.1,0.5-0.2,0.9-0.4,1.3l-1.8,20.3c0.1,0.5,0.2,1,0.3,1.5c0.1,0.5,0.3,1,0.6,1.4c0.3,0.4,0.6,0.8,0.8,1.1l2,0.7h35.8
				L187.1,298.9z"/>
		</g>
		<g>
			<path class="st0" d="M215.6,311.6c-0.4-0.2-0.8-0.4-1.3-0.4s-1-0.3-1.4-0.7c-0.4-0.4-0.8-0.8-1.1-1.1l-1-2.2l3.9-44.9
				c1.1-2,1.8-3.2,2.4-3.5c0.5-0.3,1.1-0.6,1.7-0.8c0.6-0.2,1.2-0.3,1.7-0.3c0.6,0,1.1,0,1.7,0c2.9,0.9,4.3,2.5,4.4,4.8l-3.3,37.2
				h51.3c2,0.9,3.1,1.5,3.2,2c0.2,0.4,0.4,0.9,0.6,1.4c0.2,0.5,0.4,1.1,0.4,1.7c0.1,0.6,0.1,1.3,0,2.1c-1.1,2.8-3.1,4.4-5.9,4.8
				H215.6z"/>
		</g>
		<g>
			<path class="st0" d="M294.5,311.6c-0.5-0.2-1-0.3-1.5-0.4c-0.5-0.1-1-0.4-1.4-0.9c-0.4-0.5-0.8-0.9-1.2-1.4l-0.8-1.8l3.2-37.6
				h-23.7l-2.7-2c-0.5-0.5-0.8-1-0.9-1.7c-0.1-0.7-0.2-1.3-0.1-1.8c0.1-0.5,0.1-1.1,0.2-1.7c1-2.7,2.7-4.3,5-4.7h58.5
				c2.3,0.9,3.6,1.9,3.9,3c0.3,1.1,0.4,1.9,0.3,2.5c-0.1,0.6-0.1,1.2-0.2,1.8c-0.9,2.3-2.6,3.9-5.1,4.6h-23.4l-3.2,37.2
				C300.4,309.9,298.1,311.5,294.5,311.6z"/>
		</g>
		<g>
			<path class="st0" d="M321.7,311.8l-2.8-2c-0.5-0.4-0.8-0.9-0.9-1.6c-0.1-0.7-0.2-1.3-0.1-1.8c0.1-0.5,0.1-1.2,0.2-1.9l12.2-17.3
				l2.9-1.6h28.2l-11.7-19.5c-0.6-3.2,0.2-5.6,2.4-7.2c0.5-0.4,1-0.7,1.7-1c0.7-0.2,1.3-0.3,1.8-0.3s1.1,0,1.6-0.1
				c0.6-0.1,1.9,0.7,3.9,2.2l25.2,44.7c-0.7,3.4-1.4,5.4-2.2,6c-0.8,0.6-1.5,1-2.2,1.2c-0.7,0.1-1.3,0.2-1.9,0.2c-0.6,0-1.3,0-2.1,0
				l-3-2l-6.6-12.3h-31.5l-9.2,12.6c-0.7,0.5-1.3,0.9-1.8,1.2c-0.5,0.3-1.1,0.5-1.8,0.5C323.2,311.8,322.4,311.8,321.7,311.8z"/>
		</g>
		<g>
			<path class="st0" d="M401,311.6c-1.4-0.2-2.7-0.4-3.9-0.7c-1.2-0.3-2.4-0.8-3.5-1.4c-1.1-0.6-2.2-1.5-3.2-2.5
				c-1.3-1.9-2.3-3.9-3-6c-0.6-2.1-0.6-6.6,0-13.4c0.8-1.8,1.5-2.8,2.1-3.3c0.6-0.4,1.3-0.8,1.9-1c0.6-0.2,1.3-0.3,1.9-0.3
				c0.6,0,1.2,0,1.8,0c2,0.6,3.3,1.7,3.6,3.1c0.4,1.4,0.3,3.9-0.1,7.4c0.1,3.8,1.2,5.8,3.5,6.1h36.1c0.5-0.1,0.9-0.2,1.2-0.3
				c0.3-0.1,0.6-0.2,0.9-0.5c0.3-0.3,0.6-0.5,0.8-0.7c0.3-0.4,0.6-0.8,0.8-1.1c0.2-0.3,0.4-0.7,0.5-1.2c0.1-0.5,0.2-0.9,0.5-1.3
				l2.8-32.9c0.5-0.4,0.8-0.9,1-1.4s0.6-0.9,1.2-1.4c0.6-0.4,1.3-0.8,1.9-1.1l3.2-0.3c2.5,0.4,4,2,4.5,4.7l-3,34
				c-0.5,1.5-1,2.9-1.5,4.3c-0.6,1.4-1.3,2.7-2.3,4c-1,1.3-2.1,2.4-3.6,3.4c-0.9,0.8-1.9,1.4-2.9,1.8c-1.1,0.4-2.2,0.8-3.3,1.1
				c-1.1,0.3-2.2,0.5-3.4,0.7H401z"/>
		</g>
		<g>
			<path class="st0" d="M472.5,311.6c-0.3-0.2-0.8-0.4-1.3-0.4c-0.5-0.1-1-0.3-1.4-0.7c-0.4-0.4-0.8-0.8-1.1-1.1l-1-2.2l2.2-25.3
				c1.2-3.1,3.2-4.6,6-4.6h51.5c0.4,0.2,0.8,0.3,1.3,0.4c0.5,0.1,1,0.3,1.4,0.7s0.8,0.8,1.1,1.1c0.4,0.5,0.6,1,0.7,1.5
				c0.1,0.5,0.1,1.1,0.1,1.6c0,0.5,0,1.1,0,1.8c-1.1,2.6-3,4.2-5.6,4.8H481l-1,10.4h51.2c1.8,0.6,2.8,1.2,3.1,1.7
				c0.3,0.6,0.6,1.1,0.8,1.7c0.2,0.6,0.4,1.1,0.4,1.7c0.1,0.6,0.1,1.3,0,2.1c-1.1,2.7-3,4.3-5.8,4.8H472.5z M475.3,269.5l-2.7-2
				c-0.5-0.5-0.9-1-1-1.7c-0.1-0.7-0.2-1.3-0.1-1.8c0.1-0.5,0.1-1.1,0.2-1.7c1-2.7,2.7-4.3,5.1-4.7h58.5c1.8,0.8,2.9,1.5,3.3,2.1
				c0.4,0.6,0.6,1.1,0.8,1.8c0.1,0.6,0.2,1.2,0.1,1.7c-0.1,0.5-0.1,1.1-0.2,1.8c-0.9,2.3-2.6,3.9-5.1,4.6H475.3z"/>
		</g>
		<g>
			<path class="st1" d="M553.7,311.6c-0.4-0.2-0.8-0.4-1.3-0.4c-0.5-0.1-1-0.3-1.4-0.7c-0.4-0.4-0.8-0.8-1.1-1.1
				c-0.2-0.5-0.5-1-0.7-1.6c-0.2-0.6-0.3-1.2-0.2-1.7c0.1-0.6,0.1-1.2,0.2-1.8c1-1.9,2.1-3.1,3.2-3.8c1.1-0.7,2.7-1,4.6-0.9
				c2,0.1,3.9,0.1,5.7,0.1c1.8,0,3.2,0,4.2,0l3.6-40.6l-11.9-0.1c-1.6-0.3-2.8-0.8-3.4-1.5s-1.1-1.3-1.3-1.9
				c-0.3-0.6-0.4-1.2-0.3-1.8s0.1-1.4,0.2-2.2c1.5-3,3.4-4.6,6-4.6H578c3.3,0.3,5,2,5.1,5.3l-4.2,47.3c0.9,0,2.2,0,4.1,0
				c1.9,0,3.9,0,6-0.1c2.1-0.1,4.1,0.7,5.9,2.2c0.4,0.7,0.6,1.3,0.8,1.8c0.2,0.5,0.2,1.1,0.2,1.7c-0.1,0.6-0.1,1.3-0.2,2l-1.8,2.7
				c-0.5,0.2-0.9,0.5-1.4,0.8c-0.4,0.3-0.8,0.5-1.2,0.5c-0.4,0.1-0.8,0.2-1.2,0.4H553.7z"/>
		</g>
		<g>
			<path class="st1" d="M612.6,311.6c-1.4-0.2-2.7-0.4-3.9-0.7c-1.2-0.3-2.4-0.8-3.5-1.4c-1.1-0.6-2.2-1.5-3.2-2.5
				c-0.7-1.1-1.4-2.1-2-3.2c-0.6-1.1-1.1-2.2-1.4-3.4c-0.3-1.2-0.4-2.5-0.4-3.8l2.1-23.9c0.5-1.3,0.9-2.7,1.4-4
				c0.5-1.3,1.2-2.6,2.1-3.9c1-1.3,2.1-2.5,3.5-3.5c0.9-0.5,1.7-1,2.6-1.5c0.8-0.5,1.8-0.9,2.7-1.2c1-0.3,2-0.6,3.1-0.8h38.7
				c1.4,0.4,2.7,0.8,4,1.2c1.3,0.4,2.4,1,3.5,1.8c1.1,0.8,2.1,1.9,3,3.1c0.6,0.8,1.2,1.7,1.6,2.6s0.7,1.9,0.9,3
				c0.1,1.1,0.4,2.1,0.7,3l-2.1,23.9c-0.5,1.5-1,2.9-1.5,4.3c-0.6,1.4-1.3,2.7-2.3,4c-1,1.3-2.1,2.4-3.6,3.4
				c-0.9,0.8-1.9,1.4-2.9,1.8c-1.1,0.4-2.2,0.8-3.3,1.1c-1.1,0.3-2.2,0.5-3.4,0.7H612.6z M652,298.9c0.4-0.3,0.8-0.6,1.1-1.1
				c0.3-0.4,0.6-0.9,0.7-1.6c0.2-0.6,0.4-1.2,0.5-1.7l1.8-19.6c-0.1-0.5-0.2-1.1-0.2-1.6c0-0.6-0.1-1-0.4-1.4
				c-0.3-0.4-0.6-0.8-0.9-1.1c-0.3-0.2-0.6-0.5-0.9-0.7c-0.3-0.2-0.7-0.3-1.1-0.4c-0.4-0.1-0.8-0.1-1.2-0.3h-34.6
				c-0.4,0.1-0.8,0.2-1.2,0.3c-0.4,0.1-0.8,0.2-1.1,0.3c-0.3,0.1-0.5,0.3-0.7,0.6c-0.4,0.5-0.7,1-1,1.3c-0.3,0.4-0.5,0.8-0.6,1.2
				c-0.1,0.5-0.2,0.9-0.3,1.3l-1.8,20.3c0.1,0.5,0.2,1,0.3,1.5c0.1,0.5,0.3,1,0.6,1.4c0.3,0.4,0.6,0.8,0.8,1.1l2,0.7h35.8L652,298.9
				z"/>
		</g>
		<g>
			<path class="st1" d="M671.5,311.6c-0.4-0.2-0.8-0.4-1.3-0.4c-0.5-0.1-1-0.3-1.4-0.7c-0.4-0.4-0.8-0.8-1.1-1.1
				c-0.2-0.5-0.5-1-0.7-1.6c-0.2-0.6-0.3-1.2-0.2-1.7c0.1-0.6,0.1-1.2,0.2-1.8c1-1.9,2.1-3.1,3.2-3.8c1.1-0.7,2.7-1,4.6-0.9
				c2,0.1,3.9,0.1,5.7,0.1c1.8,0,3.2,0,4.2,0l3.6-40.6l-11.9-0.1c-1.6-0.3-2.8-0.8-3.4-1.5c-0.6-0.7-1.1-1.3-1.3-1.9
				c-0.3-0.6-0.4-1.2-0.3-1.8s0.1-1.4,0.2-2.2c1.5-3,3.4-4.6,6-4.6h18.4c3.3,0.3,5,2,5.1,5.3l-4.2,47.3c0.9,0,2.2,0,4.1,0
				c1.9,0,3.9,0,6-0.1c2.1-0.1,4.1,0.7,5.9,2.2c0.4,0.7,0.6,1.3,0.8,1.8c0.2,0.5,0.2,1.1,0.2,1.7c-0.1,0.6-0.1,1.3-0.2,2l-1.8,2.7
				c-0.5,0.2-0.9,0.5-1.4,0.8c-0.4,0.3-0.8,0.5-1.2,0.5c-0.4,0.1-0.8,0.2-1.2,0.4H671.5z"/>
		</g>
	</g>
	<g>
		<path class="st0" d="M304.4,233.5c-1.6,0-3.1-0.8-3.9-2.2c-1.3-2.2-0.6-5,1.6-6.2c37.3-22.2,100.7-35.4,169.5-35.4
			c65.2,0,126.7,12.2,164.4,32.5c2.2,1.2,3,4,1.8,6.2c-1.2,2.2-4,3-6.2,1.8c-36.5-19.7-96.3-31.5-160.1-31.5
			c-67.3,0-128.9,12.8-164.9,34.2C306,233.3,305.2,233.5,304.4,233.5z"/>
	</g>
	<g>
		<path class="st0" d="M392.2,376.3c-71.8,0-136.6-14.1-173.4-37.8c-2.1-1.4-2.7-4.2-1.4-6.3c1.4-2.1,4.2-2.7,6.3-1.4
			c34.8,22.4,99.3,36.4,168.4,36.4c67,0,128.5-12.7,164.5-33.9c2.2-1.3,5-0.6,6.2,1.6c1.3,2.2,0.6,5-1.6,6.2
			C523.9,363.1,460.7,376.3,392.2,376.3z"/>
	</g>
</g>
</svg>
